<svg width="43" height="43" viewBox="0 0 43 43" fill="none" xmlns="http://www.w3.org/2000/svg">
<path d="M21.5 7.16669C23.4007 7.16669 25.2235 7.92174 26.5676 9.26575C27.9116 10.6098 28.6666 12.4326 28.6666 14.3334C28.6666 16.2341 27.9116 18.0569 26.5676 19.4009C25.2235 20.745 23.4007 21.5 21.5 21.5C19.5992 21.5 17.7764 20.745 16.4324 19.4009C15.0883 18.0569 14.3333 16.2341 14.3333 14.3334C14.3333 12.4326 15.0883 10.6098 16.4324 9.26575C17.7764 7.92174 19.5992 7.16669 21.5 7.16669ZM21.5 25.0833C29.4191 25.0833 35.8333 28.2904 35.8333 32.25V35.8333H7.16663V32.25C7.16663 28.2904 13.5808 25.0833 21.5 25.0833Z" fill="black"/>
</svg>
