<svg width="43" height="43" viewBox="0 0 43 43" fill="none" xmlns="http://www.w3.org/2000/svg">
<path d="M21.5 7.1665C23.4007 7.1665 25.2235 7.92156 26.5676 9.26557C27.9116 10.6096 28.6666 12.4324 28.6666 14.3332C28.6666 16.2339 27.9116 18.0568 26.5676 19.4008C25.2235 20.7448 23.4007 21.4998 21.5 21.4998C19.5992 21.4998 17.7764 20.7448 16.4324 19.4008C15.0883 18.0568 14.3333 16.2339 14.3333 14.3332C14.3333 12.4324 15.0883 10.6096 16.4324 9.26557C17.7764 7.92156 19.5992 7.1665 21.5 7.1665ZM21.5 25.0832C29.4191 25.0832 35.8333 28.2902 35.8333 32.2498V35.8332H7.16663V32.2498C7.16663 28.2902 13.5808 25.0832 21.5 25.0832Z" fill="black"/>
</svg>
