<svg width="25" height="16" viewBox="0 0 25 16" fill="none" xmlns="http://www.w3.org/2000/svg">
<path d="M17.1876 15.6251C18.6994 15.625 20.1788 15.1864 21.4463 14.3622C22.7137 13.538 23.7149 12.3638 24.3282 10.982C24.9416 9.60012 25.1408 8.06999 24.9017 6.57715C24.6626 5.08431 23.9956 3.69291 22.9814 2.57169C21.9672 1.45047 20.6494 0.647609 19.188 0.260474C17.7265 -0.126661 16.1841 -0.081435 14.7479 0.390666C13.3116 0.862768 12.0432 1.74146 11.0964 2.92018C10.1497 4.0989 9.56528 5.527 9.4141 7.03128H6.25002C6.25002 6.40967 6.00309 5.81353 5.56355 5.37399C5.12401 4.93445 4.52787 4.68752 3.90626 4.68752H2.34376C1.72216 4.68752 1.12601 4.93445 0.686471 5.37399C0.246931 5.81353 0 6.40967 0 7.03128L0 8.59378C0 9.21539 0.246931 9.81153 0.686471 10.2511C1.12601 10.6906 1.72216 10.9375 2.34376 10.9375H3.90626C4.52787 10.9375 5.12401 10.6906 5.56355 10.2511C6.00309 9.81153 6.25002 9.21539 6.25002 8.59378H9.4141C9.60777 10.5208 10.5103 12.3073 11.9467 13.6065C13.3831 14.9057 15.2508 15.6251 17.1876 15.6251ZM17.9688 3.90627V7.03128H21.0938C21.301 7.03128 21.4997 7.11359 21.6463 7.2601C21.7928 7.40661 21.8751 7.60533 21.8751 7.81253C21.8751 8.01973 21.7928 8.21845 21.6463 8.36496C21.4997 8.51147 21.301 8.59378 21.0938 8.59378H17.9688V11.7188C17.9688 11.926 17.8865 12.1247 17.74 12.2712C17.5935 12.4177 17.3948 12.5 17.1876 12.5C16.9804 12.5 16.7816 12.4177 16.6351 12.2712C16.4886 12.1247 16.4063 11.926 16.4063 11.7188V8.59378H13.2813C13.0741 8.59378 12.8754 8.51147 12.7289 8.36496C12.5824 8.21845 12.5 8.01973 12.5 7.81253C12.5 7.60533 12.5824 7.40661 12.7289 7.2601C12.8754 7.11359 13.0741 7.03128 13.2813 7.03128H16.4063V3.90627C16.4063 3.69906 16.4886 3.50035 16.6351 3.35384C16.7816 3.20732 16.9804 3.12501 17.1876 3.12501C17.3948 3.12501 17.5935 3.20732 17.74 3.35384C17.8865 3.50035 17.9688 3.69906 17.9688 3.90627Z" fill="black"/>
</svg>
