<svg width="25" height="16" viewBox="0 0 25 16" fill="none" xmlns="http://www.w3.org/2000/svg">
<path d="M17.1876 15.8737C18.6994 15.8737 20.1788 15.435 21.4463 14.6109C22.7137 13.7867 23.7149 12.6125 24.3282 11.2306C24.9416 9.84878 25.1408 8.31864 24.9017 6.82581C24.6626 5.33297 23.9956 3.94157 22.9814 2.82035C21.9672 1.69913 20.6494 0.896266 19.188 0.509131C17.7265 0.121997 16.1841 0.167222 14.7479 0.639324C13.3116 1.11142 12.0432 1.99012 11.0964 3.16884C10.1497 4.34755 9.56528 5.77565 9.4141 7.27993H6.25002C6.25002 6.65833 6.00309 6.06219 5.56355 5.62265C5.12401 5.18311 4.52787 4.93618 3.90626 4.93618H2.34376C1.72216 4.93618 1.12601 5.18311 0.686471 5.62265C0.246931 6.06219 0 6.65833 0 7.27993L0 8.84244C0 9.46404 0.246931 10.0602 0.686471 10.4997C1.12601 10.9393 1.72216 11.1862 2.34376 11.1862H3.90626C4.52787 11.1862 5.12401 10.9393 5.56355 10.4997C6.00309 10.0602 6.25002 9.46404 6.25002 8.84244H9.4141C9.60777 10.7695 10.5103 12.5559 11.9467 13.8551C13.3831 15.1544 15.2508 15.8737 17.1876 15.8737ZM17.9688 4.15492V7.27993H21.0938C21.301 7.27993 21.4997 7.36224 21.6463 7.50876C21.7928 7.65527 21.8751 7.85399 21.8751 8.06119C21.8751 8.26839 21.7928 8.4671 21.6463 8.61362C21.4997 8.76013 21.301 8.84244 21.0938 8.84244H17.9688V11.9675C17.9688 12.1747 17.8865 12.3734 17.74 12.5199C17.5935 12.6664 17.3948 12.7487 17.1876 12.7487C16.9804 12.7487 16.7816 12.6664 16.6351 12.5199C16.4886 12.3734 16.4063 12.1747 16.4063 11.9675V8.84244H13.2813C13.0741 8.84244 12.8754 8.76013 12.7289 8.61362C12.5824 8.4671 12.5 8.26839 12.5 8.06119C12.5 7.85399 12.5824 7.65527 12.7289 7.50876C12.8754 7.36224 13.0741 7.27993 13.2813 7.27993H16.4063V4.15492C16.4063 3.94772 16.4886 3.74901 16.6351 3.60249C16.7816 3.45598 16.9804 3.37367 17.1876 3.37367C17.3948 3.37367 17.5935 3.45598 17.74 3.60249C17.8865 3.74901 17.9688 3.94772 17.9688 4.15492Z" fill="black"/>
</svg>
