<svg width="25" height="31" viewBox="0 0 25 31" fill="none" xmlns="http://www.w3.org/2000/svg">
<path d="M10.9375 20.15H14.0625V6.2H17.1875L12.5 0L7.8125 6.2H10.9375V20.15ZM23.4375 10.85H18.75V13.95H21.875V27.9H3.125V13.95H6.25V10.85H1.5625C1.1481 10.85 0.750671 11.0133 0.457646 11.304C0.16462 11.5947 0 11.9889 0 12.4V29.45C0 29.8611 0.16462 30.2553 0.457646 30.546C0.750671 30.8367 1.1481 31 1.5625 31H23.4375C23.8519 31 24.2493 30.8367 24.5424 30.546C24.8354 30.2553 25 29.8611 25 29.45V12.4C25 11.9889 24.8354 11.5947 24.5424 11.304C24.2493 11.0133 23.8519 10.85 23.4375 10.85Z" fill="black"/>
</svg>
