<svg width="22" height="23" viewBox="0 0 22 23" fill="none" xmlns="http://www.w3.org/2000/svg">
<path d="M11.2208 2.65491V6.38941L11.2898 6.38666C11.7478 6.37016 12.379 6.36466 12.8326 6.44991C13.2436 6.52691 13.6297 6.69741 13.916 6.84591C14.3167 7.05491 14.5854 7.37528 14.738 7.72866L14.9318 7.71216C15.3898 7.67916 16.0974 7.65991 16.6317 7.86066C17.1749 8.06416 17.6432 8.53028 17.9235 8.84516C18.0336 8.96891 18.1305 9.08578 18.2098 9.18616H19.0642C19.4743 9.18617 19.88 9.26669 20.2549 9.42253C20.6298 9.57836 20.9657 9.80606 21.2409 10.0909C21.5162 10.3758 21.7246 10.7115 21.8529 11.0765C21.9811 11.4414 22.0262 11.8275 21.9854 12.2098L21.5861 15.9429C21.5145 16.6153 21.2924 17.2661 20.9344 17.8528L18.8865 21.2092C18.694 21.5248 18.4159 21.7872 18.0802 21.9698C17.7446 22.1523 17.3634 22.2485 16.9752 22.2487H7.72406C7.31492 22.2486 6.91387 22.1419 6.5659 21.9403C6.21792 21.7387 5.9368 21.4503 5.75404 21.1074L3.97046 17.7662L0.313733 12.0585C0.0361692 11.6221 -0.0618115 11.1058 0.038178 10.6065C0.138168 10.1072 0.429254 9.65923 0.85681 9.34667C1.28437 9.03412 1.819 8.87847 2.36038 8.90891C2.90176 8.93936 3.41267 9.15381 3.79723 9.51203L6.08287 11.6515V2.65491C6.08287 2.01673 6.35353 1.40469 6.8353 0.953431C7.31707 0.502172 7.9705 0.248657 8.65182 0.248657C9.33315 0.248657 9.98658 0.502172 10.4683 0.953431C10.9501 1.40469 11.2208 2.01673 11.2208 2.65491Z" fill="black"/>
</svg>
