<svg width="34" height="33" viewBox="0 0 34 33" fill="none" xmlns="http://www.w3.org/2000/svg">
<path fill-rule="evenodd" clip-rule="evenodd" d="M4.61572 2.75C4.25105 2.75 3.90131 2.89487 3.64345 3.15273C3.38559 3.41059 3.24072 3.76033 3.24072 4.125C3.24072 4.48967 3.38559 4.83941 3.64345 5.09727C3.90131 5.35513 4.25105 5.5 4.61572 5.5V20.625C4.61572 20.9897 4.76059 21.3394 5.01845 21.5973C5.27631 21.8551 5.62605 22 5.99072 22H12.3336L10.1845 28.4405C10.0692 28.7866 10.0962 29.1643 10.2594 29.4904C10.4227 29.8166 10.7088 30.0646 11.0548 30.1799C11.4009 30.2951 11.7786 30.2681 12.1048 30.1049C12.431 29.9417 12.679 29.6556 12.7942 29.3095L15.2307 22H18.748L21.1845 29.3095C21.2997 29.6556 21.5477 29.9417 21.8739 30.1049C22.0354 30.1857 22.2113 30.234 22.3914 30.2468C22.5716 30.2597 22.7525 30.2369 22.9238 30.1799C23.0952 30.1228 23.2536 30.0326 23.3901 29.9143C23.5266 29.796 23.6384 29.652 23.7193 29.4904C23.8001 29.3289 23.8483 29.1531 23.8612 28.9729C23.874 28.7928 23.8513 28.6119 23.7942 28.4405L21.6478 22H27.9907C28.3554 22 28.7051 21.8551 28.963 21.5973C29.2209 21.3394 29.3657 20.9897 29.3657 20.625V5.5C29.7304 5.5 30.0801 5.35513 30.338 5.09727C30.5959 4.83941 30.7407 4.48967 30.7407 4.125C30.7407 3.76033 30.5959 3.41059 30.338 3.15273C30.0801 2.89487 29.7304 2.75 29.3657 2.75H4.61572Z" fill="black"/>
</svg>
