<svg width="29" height="21" viewBox="0 0 29 21" fill="none" xmlns="http://www.w3.org/2000/svg">
<path d="M24.7059 6.4425H18.8235V8.79545H24.7059C25.0179 8.79545 25.3171 8.9194 25.5378 9.14003C25.7584 9.36066 25.8824 9.6599 25.8824 9.97192V12.3249H21.1765C20.2407 12.3258 19.3435 12.6979 18.6818 13.3596C18.0201 14.0213 17.648 14.9185 17.6471 15.8543V17.0307C17.648 17.9665 18.0201 18.8637 18.6818 19.5254C19.3435 20.1871 20.2407 20.5592 21.1765 20.5602H28.2353V9.97192C28.2344 9.03615 27.8622 8.13897 27.2005 7.47728C26.5388 6.81559 25.6417 6.44344 24.7059 6.4425ZM21.1765 18.2072C20.8645 18.2072 20.5652 18.0833 20.3446 17.8626C20.124 17.642 20 17.3428 20 17.0307V15.8543C20 15.5423 20.124 15.243 20.3446 15.0224C20.5652 14.8017 20.8645 14.6778 21.1765 14.6778H25.8824V18.2072H21.1765Z" fill="black"/>
<path d="M14.1176 20.5602H16.4706L9.41177 0.560181H7.05882L0 20.5602H2.35294L4.34588 14.6778H12.1259L14.1176 20.5602ZM5.14235 12.3249L8.08 3.65312H8.39294L11.3294 12.3249H5.14235Z" fill="black"/>
</svg>
